<svg id="svg15792" xmlns="http://www.w3.org/2000/svg" viewBox="0 0 155.91 206.93"><defs><style>.cls-1{fill:#f7e3c1;}.cls-2,.cls-3,.cls-5{fill:#d60e00;}.cls-3{stroke:#d60e00;stroke-miterlimit:11.34;stroke-width:1.7px;}.cls-4,.cls-5{isolation:isolate;}.cls-5{font-size:11.08px;font-family:FuturaBT-Heavy, Futura Hv BT;font-weight:800;letter-spacing:0.15em;}</style></defs><rect id="rect35744" class="cls-1" width="155.91" height="206.93"/><rect id="rect35742" class="cls-1" x="14.17" y="14.17" width="127.56" height="178.58"/><rect id="rect35739" class="cls-2" x="24.01" y="21.02" width="107.89" height="164.9" rx="6.24"/><g id="g26327"><path id="rect26316" class="cls-1" d="M134.76,60V76.22h14.83V203.75H63V60Z" transform="translate(-28.35 -28.35)"/><path id="rect26321" class="cls-1" d="M136.74,61.28V73.94H149.4Z" transform="translate(-28.35 -28.35)"/></g><g id="layer5"><g id="g9435"><circle id="path9358" class="cls-2" cx="41.17" cy="108.94" r="0.98"/><g id="use9362"><circle id="path9358-2" data-name="path9358" class="cls-2" cx="44.24" cy="108.94" r="0.98"/></g><g id="use9364"><circle id="path9358-3" data-name="path9358" class="cls-2" cx="47.3" cy="108.94" r="0.98"/></g><g id="use9366"><circle id="path9358-4" data-name="path9358" class="cls-2" cx="50.37" cy="108.94" r="0.98"/></g><g id="use9368"><circle id="path9358-5" data-name="path9358" class="cls-2" cx="53.43" cy="108.94" r="0.98"/></g><g id="use9370"><circle id="path9358-6" data-name="path9358" class="cls-2" cx="56.5" cy="108.94" r="0.98"/></g><g id="use9372"><circle id="path9358-7" data-name="path9358" class="cls-2" cx="59.56" cy="108.94" r="0.98"/></g><g id="use9374"><circle id="path9358-8" data-name="path9358" class="cls-2" cx="62.63" cy="108.94" r="0.98"/></g><g id="use9376"><circle id="path9358-9" data-name="path9358" class="cls-2" cx="65.69" cy="108.94" r="0.98"/></g><g id="use9378"><circle id="path9358-10" data-name="path9358" class="cls-2" cx="68.76" cy="108.94" r="0.98"/></g><g id="use9380"><circle id="path9358-11" data-name="path9358" class="cls-2" cx="71.82" cy="108.94" r="0.98"/></g><g id="use9382"><circle id="path9358-12" data-name="path9358" class="cls-2" cx="74.89" cy="108.94" r="0.98"/></g><g id="use9384"><circle id="path9358-13" data-name="path9358" class="cls-2" cx="77.95" cy="108.94" r="0.98"/></g><g id="use9386"><circle id="path9358-14" data-name="path9358" class="cls-2" cx="81.02" cy="108.94" r="0.98"/></g><g id="use9388"><circle id="path9358-15" data-name="path9358" class="cls-2" cx="84.08" cy="108.94" r="0.98"/></g><g id="use9390"><circle id="path9358-16" data-name="path9358" class="cls-2" cx="87.15" cy="108.94" r="0.98"/></g><g id="use9392"><circle id="path9358-17" data-name="path9358" class="cls-2" cx="90.21" cy="108.94" r="0.98"/></g><g id="use9394"><circle id="path9358-18" data-name="path9358" class="cls-2" cx="93.28" cy="108.94" r="0.98"/></g><g id="use9396"><circle id="path9358-19" data-name="path9358" class="cls-2" cx="96.34" cy="108.94" r="0.98"/></g><g id="use9398"><circle id="path9358-20" data-name="path9358" class="cls-2" cx="99.41" cy="108.94" r="0.98"/></g><g id="use9400"><circle id="path9358-21" data-name="path9358" class="cls-2" cx="102.47" cy="108.94" r="0.98"/></g><g id="use9402"><circle id="path9358-22" data-name="path9358" class="cls-2" cx="105.54" cy="108.94" r="0.98"/></g><g id="use9404"><circle id="path9358-23" data-name="path9358" class="cls-2" cx="108.6" cy="108.94" r="0.98"/></g><g id="use9406"><circle id="path9358-24" data-name="path9358" class="cls-2" cx="111.67" cy="108.94" r="0.98"/></g><g id="use9408"><circle id="path9358-25" data-name="path9358" class="cls-2" cx="114.73" cy="108.94" r="0.98"/></g></g><g id="g35737"><path id="path35667" class="cls-3" d="M126.52,144.59H143.2" transform="translate(-28.35 -28.35)"/><path id="path35669" class="cls-3" d="M126.52,151H143.2" transform="translate(-28.35 -28.35)"/><path id="path35671" class="cls-3" d="M69.4,157.4h73.8" transform="translate(-28.35 -28.35)"/><path id="path35673" class="cls-3" d="M69.4,163.8h73.8" transform="translate(-28.35 -28.35)"/><path id="path35675" class="cls-3" d="M69.4,170.2h64.15" transform="translate(-28.35 -28.35)"/><path id="path35677" class="cls-3" d="M69.4,183h73.8" transform="translate(-28.35 -28.35)"/><path id="path35679" class="cls-3" d="M69.4,189.37h73.8" transform="translate(-28.35 -28.35)"/><path id="path35681" class="cls-3" d="M69.4,195.77h73.8" transform="translate(-28.35 -28.35)"/><g id="text35685" class="cls-4"><text class="cls-5" transform="translate(41.16 123.6)">ARTICLE</text></g></g><path id="path35865" class="cls-2" d="M103.18,103.11a1.54,1.54,0,0,0-.65-.11,2.15,2.15,0,0,1-.61-.09.51.51,0,0,0-.29-.06.51.51,0,0,1-.34-.1.29.29,0,0,0-.22-.1.63.63,0,0,1-.28-.1.44.44,0,0,0-.25-.1c-.06,0-.12,0-.12-.06s0-.08-.11-.1a1.35,1.35,0,0,1-.58-.38c0-.07-.11-.13-.15-.13a1.27,1.27,0,0,1-.36-.32c-.39-.44-.4-.46-.4-.58a.17.17,0,0,0-.11-.15.21.21,0,0,1-.1-.19.31.31,0,0,0-.1-.23.4.4,0,0,1-.1-.24.29.29,0,0,0-.06-.2,5.76,5.76,0,0,1-.07-1.3c0-1,0-1.29-.1-1.37a.3.3,0,0,1-.1-.14.56.56,0,0,0-.13-.19l-.38-.43a.9.9,0,0,0-.34-.29s-.09,0-.09-.06-.09-.08-.2-.1-.22-.07-.24-.11a.35.35,0,0,0-.23-.06c-.1,0-.21,0-.23-.07a1.24,1.24,0,0,0-.47-.06,1.16,1.16,0,0,0-.47.06,3,3,0,0,1-.9.07c-.68,0-.88,0-.94-.1a.28.28,0,0,0-.18-.1s-.09,0-.09-.06-.08-.09-.17-.13-.16-.12-.16-.17-.08-.15-.17-.22-.17-.16-.17-.2a.26.26,0,0,0-.1-.16.31.31,0,0,1-.1-.24.23.23,0,0,0-.1-.2c-.07,0-.1-.14-.1-.33s0-.31-.07-.33a.27.27,0,0,1-.07-.2.58.58,0,0,0-.09-.28.55.55,0,0,1-.1-.31.54.54,0,0,0-.11-.28.56.56,0,0,1-.1-.33.52.52,0,0,0-.06-.28.85.85,0,0,1-.11-.34.74.74,0,0,0-.1-.33,2.58,2.58,0,0,1,0-1.14.28.28,0,0,0,.06-.19.35.35,0,0,1,.1-.24.26.26,0,0,0,.1-.17c0-.08.21-.28.81-.8a1.13,1.13,0,0,0,.47-.73.33.33,0,0,1,.06-.21,4.83,4.83,0,0,0,0-1.61,2.53,2.53,0,0,1-.07-.82,2.39,2.39,0,0,0-.1-.95,2.33,2.33,0,0,1-.09-.84,2.34,2.34,0,0,0-.07-.74,4.85,4.85,0,0,1-.08-1,3.38,3.38,0,0,0-.11-1,13.73,13.73,0,0,1,0-2.79s.09-.24.11-.54a1.58,1.58,0,0,1,.11-.57,1,1,0,0,0,.05-.41c0-.26,0-.37.1-.4a.19.19,0,0,0,.11-.18.53.53,0,0,1,.1-.28.63.63,0,0,0,.1-.31.4.4,0,0,1,.06-.23s.07-.11.07-.19a.35.35,0,0,1,.1-.24.3.3,0,0,0,.1-.2.3.3,0,0,1,.1-.2.3.3,0,0,0,.1-.21c0-.07,0-.13.07-.13s.07,0,.07-.1a.86.86,0,0,1,.15-.32,2.69,2.69,0,0,0,.28-.46,1.62,1.62,0,0,1,.31-.43.76.76,0,0,0,.19-.29.57.57,0,0,1,.17-.25.53.53,0,0,0,.17-.22s0-.07.1-.07a.09.09,0,0,0,.1-.08,11.44,11.44,0,0,1,1.64-1.58,2.56,2.56,0,0,0,.42-.33.58.58,0,0,1,.2-.15s.1,0,.15-.1a.26.26,0,0,1,.17-.1,2.54,2.54,0,0,0,.76-.49s.1,0,.21,0,.2,0,.21-.05a.77.77,0,0,1,.29-.17l.46-.22a1,1,0,0,1,.27-.1.73.73,0,0,0,.28-.1,1.13,1.13,0,0,1,.38-.1.36.36,0,0,0,.22-.06s.11-.07.2-.07a.24.24,0,0,0,.21-.1c0-.07.14-.1.42-.1a1.64,1.64,0,0,0,.58-.1,23.36,23.36,0,0,1,4.58,0,1.44,1.44,0,0,0,.48.1.57.57,0,0,1,.39.1.41.41,0,0,0,.26.1,3,3,0,0,1,.93.29.47.47,0,0,0,.22,0,.26.26,0,0,1,.22.1c0,.06.12.1.21.1s.18,0,.2.07a.5.5,0,0,0,.24.1c.11,0,.2.07.2.11s.07.06.17.06.16,0,.16.06.14.13.31.21.3.18.3.21.07.06.16.06.17,0,.17,0a.94.94,0,0,0,.27.25,10.72,10.72,0,0,1,1.07.88,2.82,2.82,0,0,0,.35.29,1.83,1.83,0,0,1,.46.46,3.61,3.61,0,0,0,.36.43,2.15,2.15,0,0,1,.37.44s.05.08.1.1a.15.15,0,0,1,.1.13.55.55,0,0,0,.16.26,3,3,0,0,1,.34.55,2.27,2.27,0,0,0,.28.45.24.24,0,0,1,.09.16.34.34,0,0,0,.1.17.31.31,0,0,1,.1.24,1.6,1.6,0,0,0,.17.47,1.5,1.5,0,0,1,.17.44.17.17,0,0,0,.1.16c.06,0,.1.13.1.26a.42.42,0,0,0,.06.26,1.14,1.14,0,0,1,.1.44,1.38,1.38,0,0,0,.1.44,1.48,1.48,0,0,1,.1.53,1.73,1.73,0,0,0,.11.54,16.07,16.07,0,0,1,0,3.1,3.05,3.05,0,0,0-.1,1,7.61,7.61,0,0,1-.08,1,7.47,7.47,0,0,0-.11,1.16,5.85,5.85,0,0,1-.1,1.12,7.81,7.81,0,0,0-.06,1.4c0,1.59,0,1.55.7,2.28s.68.71.73.93.07.17.11.17a3.09,3.09,0,0,1,0,1.44.79.79,0,0,0-.09.38c0,.14,0,.26-.07.26s-.07.08-.07.18a.94.94,0,0,1-.1.38,1,1,0,0,0-.1.34.22.22,0,0,1-.1.2c-.07,0-.1.12-.1.29a1.82,1.82,0,0,1-.27.84.51.51,0,0,0-.07.24,1,1,0,0,1-.26.42,1.28,1.28,0,0,0-.27.36s-.12.13-.27.2-.27.17-.27.22a7.09,7.09,0,0,1-2.11,0,.73.73,0,0,0-.36-.06.78.78,0,0,0-.37.06.34.34,0,0,1-.24.07.37.37,0,0,0-.23.06.46.46,0,0,1-.23.09,2.51,2.51,0,0,0-.67.52l-.47.48v1.19c0,1,0,1.21-.1,1.28a.38.38,0,0,0-.11.28.44.44,0,0,1-.1.29.54.54,0,0,0-.1.3c0,.11,0,.2-.06.2s-.07.07-.07.16,0,.17-.07.17-.09,0-.12.12c-.09.23-.38.62-.46.62a.09.09,0,0,0-.09.08s-.09.13-.2.18a1.76,1.76,0,0,0-.41.28.65.65,0,0,1-.29.19.19.19,0,0,0-.13.07.28.28,0,0,1-.2.07.38.38,0,0,0-.26.1.42.42,0,0,1-.2.1.3.3,0,0,0-.18.1.55.55,0,0,1-.37.1.64.64,0,0,0-.33.06,1.24,1.24,0,0,1-.45.09,1.27,1.27,0,0,0-.48.11,14.14,14.14,0,0,1-3,0Zm0-5.48s.12-.07.22-.07a1.23,1.23,0,0,0,.8-.52c.18-.2.23-.23.28-.15s.41.47.5.47a.28.28,0,0,1,.18.1.31.31,0,0,0,.24.1c.08,0,.17,0,.19.07a.24.24,0,0,0,.17.06c.07,0,.13,0,.13-.06s.09-.07.2-.07.21,0,.21,0a1,1,0,0,1,.3-.27c.16-.12.3-.26.3-.31s0-.11,0-.11.28-.49.28-.72a.37.37,0,0,1,.07-.25s.07-.14.07-.26,0-.25-.07-.27a.34.34,0,0,1-.07-.24,1.74,1.74,0,0,0-.44-.89.23.23,0,0,1-.09-.18c0-.07,0-.13-.07-.13s-.09-.06-.11-.12a3.3,3.3,0,0,0-.3-.42,1.26,1.26,0,0,1-.26-.42.2.2,0,0,0-.07-.15.28.28,0,0,1-.06-.19.35.35,0,0,0-.1-.24.39.39,0,0,1-.1-.27.71.71,0,0,0-.1-.31.47.47,0,0,1-.1-.26,1.52,1.52,0,0,0-.42-.8,1.09,1.09,0,0,0-.56-.1.72.72,0,0,0-.69.25,1,1,0,0,0-.28.37c0,.06,0,.11-.06.11s-.07.07-.07.16a.23.23,0,0,1-.1.2c-.06,0-.1.13-.1.25a3.11,3.11,0,0,1-.48,1.11.34.34,0,0,0-.06.22c0,.11,0,.21-.1.23a.17.17,0,0,0-.1.14.25.25,0,0,1-.12.18,2.31,2.31,0,0,0-.62.85.27.27,0,0,1-.06.18,5.05,5.05,0,0,0,0,1.6s.08.13.11.24.46.67.61.67a.15.15,0,0,1,.13.1.27.27,0,0,0,.24.1c.1,0,.19,0,.19.07s.06.06.13.06a.24.24,0,0,0,.17-.06Zm-4.89-4.49a.26.26,0,0,1,.19-.07,2.84,2.84,0,0,0,1.1-.57.47.47,0,0,1,.24-.16,3.47,3.47,0,0,0,.63-.52c.56-.54.71-.67.91-.73a.16.16,0,0,0,.11-.13s0-.1.06-.1a6.38,6.38,0,0,0,1-1,.13.13,0,0,1,.08-.1,1.16,1.16,0,0,0,.28-.41c.18-.35.19-.42.19-1.18a2.41,2.41,0,0,0-.08-.88.83.83,0,0,1-.07-.4.66.66,0,0,0-.1-.41.72.72,0,0,1-.1-.47.7.7,0,0,0-.1-.45.26.26,0,0,1-.1-.19c0-.26-.46-.94-.63-.94a.7.7,0,0,1-.22-.17.52.52,0,0,0-.25-.17.54.54,0,0,1-.28-.17,1,1,0,0,0-.42-.2,2.72,2.72,0,0,1-.45-.1,1.9,1.9,0,0,0-.51-.07.74.74,0,0,1-.37-.07,3.94,3.94,0,0,0-1-.11c-.74,0-.94,0-1.06.06a1.13,1.13,0,0,1-.36.14,1.69,1.69,0,0,0-.82.37.58.58,0,0,1-.2.15,1.24,1.24,0,0,0-.42.43.7.7,0,0,1-.15.19,1.54,1.54,0,0,0-.36.54c0,.06-.07.11-.1.11s-.46.82-.46,1.13a1,1,0,0,1-.1.44.71.71,0,0,0-.1.38.48.48,0,0,1-.07.3,2.07,2.07,0,0,0,0,1,2,2,0,0,1,.1.62,1.74,1.74,0,0,0,.11.65.29.29,0,0,1,.07.18,1.3,1.3,0,0,0,.17.43,1.52,1.52,0,0,1,.16.41A.17.17,0,0,0,95,91a.18.18,0,0,1,.11.16.3.3,0,0,0,.1.2.32.32,0,0,1,.1.19,1.1,1.1,0,0,0,.46.55.07.07,0,0,1,.07.06c0,.11.42.47.55.47a.32.32,0,0,1,.19.1.26.26,0,0,0,.18.1.42.42,0,0,1,.2.1.49.49,0,0,0,.32.1c.13,0,.25,0,.27.07a1.18,1.18,0,0,0,.8,0Zm13,0a.42.42,0,0,1,.27-.07.52.52,0,0,0,.33-.1.35.35,0,0,1,.19-.1.24.24,0,0,0,.18-.1.35.35,0,0,1,.15-.1,1.3,1.3,0,0,0,.59-.45.07.07,0,0,1,.07-.08c.1,0,.46-.42.47-.54a.72.72,0,0,1,.2-.3A.63.63,0,0,0,114,91c0-.07,0-.13,0-.13a2.1,2.1,0,0,0,.29-.77.47.47,0,0,1,.1-.26,1.1,1.1,0,0,0,.09-.55.92.92,0,0,1,.07-.46,2.61,2.61,0,0,0,0-1.2.74.74,0,0,1-.07-.4,1.1,1.1,0,0,0-.09-.48.69.69,0,0,1-.1-.38c0-.14,0-.25-.06-.25s-.1-.12-.14-.27a1.27,1.27,0,0,0-.2-.39.71.71,0,0,1-.16-.22,2,2,0,0,0-.46-.6,1.53,1.53,0,0,1-.28-.35.35.35,0,0,0-.16-.16.78.78,0,0,1-.22-.12,2.54,2.54,0,0,0-.87-.44.58.58,0,0,1-.31-.11c-.15-.09-.3-.1-1.25-.06a7.26,7.26,0,0,0-1.15.11.48.48,0,0,1-.29.06.74.74,0,0,0-.33.07,1.79,1.79,0,0,1-.36.1.92.92,0,0,0-.41.19,2.25,2.25,0,0,1-.41.28.81.81,0,0,0-.25.18s-.06.06-.13.06-.2.1-.32.28a1.67,1.67,0,0,1-.23.31s0,.09,0,.17a.23.23,0,0,1-.1.2.17.17,0,0,0-.1.16,1,1,0,0,1-.1.32,1,1,0,0,0-.1.41c0,.12,0,.23-.07.25a5.72,5.72,0,0,0-.07,1.28c0,1,0,1.26.12,1.43s.14.21.17.21,0,.06,0,.13a.19.19,0,0,0,.1.18.17.17,0,0,1,.1.13s0,.09,0,.09.38.32.79.71a9.21,9.21,0,0,0,.83.73.48.48,0,0,1,.2.18,3,3,0,0,0,.91.78l.3.22a2.93,2.93,0,0,0,1,.46c.09,0,.19,0,.21.07a1.18,1.18,0,0,0,.8,0Z" transform="translate(-28.35 -28.35)"/><g id="g38458"><path id="path38398" class="cls-2" d="M73.35,112.7l-2.79,4.08v13.08H74v-7.14h4.53v-2.88H74v-3.46l4.91.66L80,113.53Z" transform="translate(-28.35 -28.35)"/><path id="path26905-0" class="cls-2" d="M84.69,112.7l-2.88,5.35v5H80.42v2h1.39v5.07h3.11v-5.07h3v4.67l3.19.68,1.54-3.35-1.62-.26v-9.26l-1.21-4.14Zm.23,3.66,3,.58v6.11h-3Z" transform="translate(-28.35 -28.35)"/><path id="path27033" class="cls-2" d="M133.42,112.7l-.86,2.66h4v14.12h3.11V115.36H143l.86-2.66Z" transform="translate(-28.35 -28.35)"/><path id="path26167-4-5" class="cls-2" d="M120,113.68v16.23h-3.17V116.38l-2-.4,1.59-3.28Z" transform="translate(-28.35 -28.35)"/><path id="path14467" class="cls-2" d="M93.32,129.41l.91-3.12,5,.66a13.54,13.54,0,0,0,0-3.54L93.65,121a16.52,16.52,0,0,1,0-2.1,10.45,10.45,0,0,1,.38-2.3,15.2,15.2,0,0,1,1.14-1.44,10.2,10.2,0,0,1,1.49-1.46,10.36,10.36,0,0,1,1.36-1l4.72.63-1.47,3-3.86-.63a9.07,9.07,0,0,0-.25,3.16l5.43,2.25a10.21,10.21,0,0,1,.15,2.3,14.57,14.57,0,0,1-.33,2.73A14.33,14.33,0,0,1,98.77,130Z" transform="translate(-28.35 -28.35)"/><g id="text14488"><path id="path14490" class="cls-2" d="M109.36,112.7a13.11,13.11,0,0,0-2.65,2.37,14.52,14.52,0,0,0-2.15,2.85,21,21,0,0,0-.5,4.22,22.09,22.09,0,0,0,1,7.12l7,.68,1.11-3.54L107,126a34.83,34.83,0,0,1-.3-7c0-.86.76-1.46.92-1.82s1-.63,1.31-.78l3.58.56L114,113.3Z" transform="translate(-28.35 -28.35)"/></g><path id="path38448" class="cls-2" d="M122.17,129.41l.91-3.12,5,.66a13.12,13.12,0,0,0,0-3.54L122.5,121a18.61,18.61,0,0,1,0-2.1,11.08,11.08,0,0,1,.38-2.3,15.2,15.2,0,0,1,1.14-1.44,10.72,10.72,0,0,1,1.49-1.46,10.36,10.36,0,0,1,1.36-1l4.72.63-1.46,3-3.86-.63a9.08,9.08,0,0,0-.26,3.16l5.43,2.25a9.65,9.65,0,0,1,.15,2.3,13.79,13.79,0,0,1-.33,2.73,14.33,14.33,0,0,1-3.66,3.89Z" transform="translate(-28.35 -28.35)"/></g></g></svg>