<svg id="svg8" xmlns="http://www.w3.org/2000/svg" viewBox="0 0 127.56 183.89"><defs><style>.cls-1{fill:#990509;}.cls-2,.cls-3,.cls-5{fill:#d60e00;}.cls-3{stroke:#d60e00;stroke-miterlimit:11.34;stroke-width:1.7px;}.cls-4,.cls-5{isolation:isolate;}.cls-5{font-size:11.08px;font-family:FuturaBT-Heavy, Futura Hv BT;font-weight:800;letter-spacing:0.15em;}</style></defs><g id="layer1"><g id="g612"><g id="g14346"><g id="layer7"><rect id="rect35742" class="cls-1" width="127.56" height="183.89"/></g><g id="layer6"><rect id="rect35739" class="cls-2" x="9.84" y="8.36" width="107.89" height="164.9" rx="6.24"/><g id="g26327"><path id="rect26316" class="cls-1" d="M92.79,19.27V35.54h14.84V163.07H21V19.27Z" transform="translate(-0.55 -0.33)"/><path id="rect26321" class="cls-1" d="M94.77,20.6V33.27h12.66Z" transform="translate(-0.55 -0.33)"/></g></g><g id="layer5"><g id="g9435"><circle id="path9358" class="cls-2" cx="27" cy="96.29" r="0.98"/><g id="use9362"><circle id="path9358-2" data-name="path9358" class="cls-2" cx="30.06" cy="96.29" r="0.98"/></g><g id="use9364"><circle id="path9358-3" data-name="path9358" class="cls-2" cx="33.13" cy="96.29" r="0.98"/></g><g id="use9366"><circle id="path9358-4" data-name="path9358" class="cls-2" cx="36.19" cy="96.29" r="0.98"/></g><g id="use9368"><circle id="path9358-5" data-name="path9358" class="cls-2" cx="39.26" cy="96.29" r="0.98"/></g><g id="use9370"><circle id="path9358-6" data-name="path9358" class="cls-2" cx="42.32" cy="96.29" r="0.98"/></g><g id="use9372"><circle id="path9358-7" data-name="path9358" class="cls-2" cx="45.39" cy="96.29" r="0.98"/></g><g id="use9374"><circle id="path9358-8" data-name="path9358" class="cls-2" cx="48.45" cy="96.29" r="0.98"/></g><g id="use9376"><circle id="path9358-9" data-name="path9358" class="cls-2" cx="51.52" cy="96.29" r="0.98"/></g><g id="use9378"><circle id="path9358-10" data-name="path9358" class="cls-2" cx="54.58" cy="96.29" r="0.98"/></g><g id="use9380"><circle id="path9358-11" data-name="path9358" class="cls-2" cx="57.65" cy="96.29" r="0.98"/></g><g id="use9382"><circle id="path9358-12" data-name="path9358" class="cls-2" cx="60.71" cy="96.29" r="0.98"/></g><g id="use9384"><circle id="path9358-13" data-name="path9358" class="cls-2" cx="63.78" cy="96.29" r="0.98"/></g><g id="use9386"><circle id="path9358-14" data-name="path9358" class="cls-2" cx="66.84" cy="96.29" r="0.98"/></g><g id="use9388"><circle id="path9358-15" data-name="path9358" class="cls-2" cx="69.91" cy="96.29" r="0.98"/></g><g id="use9390"><circle id="path9358-16" data-name="path9358" class="cls-2" cx="72.97" cy="96.29" r="0.98"/></g><g id="use9392"><circle id="path9358-17" data-name="path9358" class="cls-2" cx="76.04" cy="96.29" r="0.98"/></g><g id="use9394"><circle id="path9358-18" data-name="path9358" class="cls-2" cx="79.1" cy="96.29" r="0.98"/></g><g id="use9396"><circle id="path9358-19" data-name="path9358" class="cls-2" cx="82.17" cy="96.29" r="0.98"/></g><g id="use9398"><circle id="path9358-20" data-name="path9358" class="cls-2" cx="85.23" cy="96.29" r="0.98"/></g><g id="use9400"><circle id="path9358-21" data-name="path9358" class="cls-2" cx="88.3" cy="96.29" r="0.98"/></g><g id="use9402"><circle id="path9358-22" data-name="path9358" class="cls-2" cx="91.36" cy="96.29" r="0.98"/></g><g id="use9404"><circle id="path9358-23" data-name="path9358" class="cls-2" cx="94.43" cy="96.29" r="0.98"/></g><g id="use9406"><circle id="path9358-24" data-name="path9358" class="cls-2" cx="97.49" cy="96.29" r="0.98"/></g><g id="use9408"><circle id="path9358-25" data-name="path9358" class="cls-2" cx="100.56" cy="96.29" r="0.98"/></g></g><g id="g35737"><path id="path35667" class="cls-3" d="M84.55,103.91h16.68" transform="translate(-0.55 -0.33)"/><path id="path35669" class="cls-3" d="M84.55,110.31h16.68" transform="translate(-0.55 -0.33)"/><path id="path35671" class="cls-3" d="M27.43,116.72h73.8" transform="translate(-0.55 -0.33)"/><path id="path35673" class="cls-3" d="M27.43,123.12h73.8" transform="translate(-0.55 -0.33)"/><path id="path35675" class="cls-3" d="M27.43,129.52H91.58" transform="translate(-0.55 -0.33)"/><path id="path35677" class="cls-3" d="M27.43,142.29h73.8" transform="translate(-0.55 -0.33)"/><path id="path35679" class="cls-3" d="M27.43,148.69h73.8" transform="translate(-0.55 -0.33)"/><path id="path35681" class="cls-3" d="M27.43,155.09h73.8" transform="translate(-0.55 -0.33)"/><g id="text35685" class="cls-4"><text class="cls-5" transform="translate(26.99 110.95)">ARTICLE</text></g></g><path id="path35865" class="cls-2" d="M61.21,62.43a2,2,0,0,0-.65-.11,2.15,2.15,0,0,1-.61-.09.51.51,0,0,0-.29-.06.51.51,0,0,1-.34-.1.32.32,0,0,0-.22-.1.56.56,0,0,1-.27-.1.5.5,0,0,0-.26-.1c-.06,0-.12,0-.12-.06s-.05-.08-.11-.1a1.25,1.25,0,0,1-.57-.38c-.05-.07-.12-.13-.16-.13a1.27,1.27,0,0,1-.36-.32c-.39-.44-.4-.46-.4-.58a.2.2,0,0,0-.1-.15.19.19,0,0,1-.1-.19.32.32,0,0,0-.11-.23.4.4,0,0,1-.1-.24.32.32,0,0,0-.06-.2,5.76,5.76,0,0,1-.07-1.3c0-1,0-1.28-.1-1.37a.3.3,0,0,1-.1-.14.56.56,0,0,0-.13-.19l-.37-.43a.84.84,0,0,0-.35-.28.08.08,0,0,1-.09-.07s-.09-.08-.2-.1-.22-.07-.24-.11a.35.35,0,0,0-.23-.06c-.1,0-.21,0-.23-.07A1.2,1.2,0,0,0,53.8,55a1.16,1.16,0,0,0-.47.06,3,3,0,0,1-.9.07c-.68,0-.87,0-.94-.1a.33.33,0,0,0-.18-.1c-.05,0-.09,0-.09-.06s-.07-.09-.17-.13-.16-.12-.16-.17-.08-.15-.17-.22a.41.41,0,0,1-.17-.2.26.26,0,0,0-.1-.16.35.35,0,0,1-.1-.24.21.21,0,0,0-.1-.2c-.07,0-.1-.13-.1-.33s0-.31-.07-.33a.28.28,0,0,1-.06-.19.56.56,0,0,0-.1-.28.6.6,0,0,1-.1-.31.42.42,0,0,0-.11-.28.62.62,0,0,1-.1-.34c0-.13,0-.25-.06-.27a1,1,0,0,1-.11-.34.75.75,0,0,0-.1-.34,2.54,2.54,0,0,1,0-1.13.34.34,0,0,0,.06-.2.38.38,0,0,1,.1-.24.26.26,0,0,0,.1-.17c0-.07.21-.28.82-.8a1.12,1.12,0,0,0,.46-.73.33.33,0,0,1,.06-.21,4.83,4.83,0,0,0,0-1.61,3.41,3.41,0,0,1-.07-.82,2.72,2.72,0,0,0-.09-1,2,2,0,0,1-.1-.84,2.91,2.91,0,0,0-.06-.74,3.89,3.89,0,0,1-.09-1,3.28,3.28,0,0,0-.11-1,13.83,13.83,0,0,1,0-2.8s.09-.24.11-.54a2,2,0,0,1,.11-.57.88.88,0,0,0,.06-.4c0-.27,0-.38.1-.41a.21.21,0,0,0,.1-.18A.47.47,0,0,1,51,35a.71.71,0,0,0,.1-.32.34.34,0,0,1,.06-.22.28.28,0,0,0,.07-.2.38.38,0,0,1,.1-.24.3.3,0,0,0,.1-.2.3.3,0,0,1,.1-.2.3.3,0,0,0,.1-.21c0-.07,0-.13.07-.13s.07,0,.07-.1a.78.78,0,0,1,.16-.32,3.47,3.47,0,0,0,.27-.46,1.62,1.62,0,0,1,.31-.43.69.69,0,0,0,.19-.29.51.51,0,0,1,.17-.24.61.61,0,0,0,.17-.23s0-.07.1-.07.1,0,.1-.07a10.93,10.93,0,0,1,1.64-1.59,2.68,2.68,0,0,0,.42-.32A.47.47,0,0,1,55.5,29a.28.28,0,0,0,.14-.1.26.26,0,0,1,.17-.1,2.54,2.54,0,0,0,.76-.49s.1-.05.21-.05.2,0,.21,0a.94.94,0,0,1,.29-.17l.46-.22a.88.88,0,0,1,.28-.09,1.2,1.2,0,0,0,.28-.1.86.86,0,0,1,.37-.1.33.33,0,0,0,.22-.07s.11-.07.21-.07a.21.21,0,0,0,.2-.1c0-.07.14-.1.43-.1a1.42,1.42,0,0,0,.57-.1,25,25,0,0,1,4.58,0,1.23,1.23,0,0,0,.48.1.57.57,0,0,1,.39.1.38.38,0,0,0,.26.1,3.28,3.28,0,0,1,.93.29.35.35,0,0,0,.22.05c.1,0,.2,0,.22.1a.26.26,0,0,0,.21.1c.09,0,.18,0,.2.06a.5.5,0,0,0,.24.1c.11,0,.2.08.2.11s.08.06.17.06.17,0,.17.06.13.13.3.22.3.17.3.2.07.06.17.06.16,0,.16,0a.94.94,0,0,0,.27.25,10.71,10.71,0,0,1,1.08.89,2,2,0,0,0,.35.28,1.79,1.79,0,0,1,.45.46,2.63,2.63,0,0,0,.37.43,2.32,2.32,0,0,1,.36.44s.05.08.1.1a.15.15,0,0,1,.1.13.55.55,0,0,0,.16.26,3,3,0,0,1,.34.55,2.89,2.89,0,0,0,.28.45.24.24,0,0,1,.09.16.31.31,0,0,0,.1.17.31.31,0,0,1,.1.24,1.6,1.6,0,0,0,.17.47,1.5,1.5,0,0,1,.17.44.17.17,0,0,0,.1.16.29.29,0,0,1,.1.26.42.42,0,0,0,.06.26,1.14,1.14,0,0,1,.1.44,1.38,1.38,0,0,0,.1.44,1.71,1.71,0,0,1,.11.53,1.56,1.56,0,0,0,.1.54,16.07,16.07,0,0,1,0,3.1,3.05,3.05,0,0,0-.1,1,6,6,0,0,1-.08,1,7.47,7.47,0,0,0-.11,1.16,5.85,5.85,0,0,1-.1,1.12,9.08,9.08,0,0,0-.06,1.4c0,1.59,0,1.55.7,2.28s.68.71.73.93.08.18.11.18a3,3,0,0,1,0,1.43.83.83,0,0,0-.09.39c0,.14,0,.25-.07.25s-.07.08-.07.19a.86.86,0,0,1-.1.37,1,1,0,0,0-.1.35.2.2,0,0,1-.1.19c-.06,0-.1.13-.1.3a1.79,1.79,0,0,1-.27.83.51.51,0,0,0-.06.25,1,1,0,0,1-.27.41,1.28,1.28,0,0,0-.27.36s-.12.14-.27.21-.26.16-.26.21a7.16,7.16,0,0,1-2.12,0,.73.73,0,0,0-.36-.06.78.78,0,0,0-.37.06s-.13.07-.24.07a.37.37,0,0,0-.23.06.41.41,0,0,1-.22.1,1.93,1.93,0,0,0-.67.52L69,56.3v1.18c0,1,0,1.21-.1,1.28a.38.38,0,0,0-.1.28.54.54,0,0,1-.1.3.43.43,0,0,0-.11.29c0,.11,0,.2-.06.2s-.07.07-.07.17,0,.16-.07.16-.09.06-.12.12c-.09.24-.38.62-.46.62a.09.09,0,0,0-.09.08c0,.05-.09.13-.2.18a1.76,1.76,0,0,0-.41.28.7.7,0,0,1-.29.2.18.18,0,0,0-.13.06.28.28,0,0,1-.2.07.43.43,0,0,0-.26.1.34.34,0,0,1-.2.1.33.33,0,0,0-.18.1.55.55,0,0,1-.37.1.64.64,0,0,0-.33.06,1.22,1.22,0,0,1-.44.09,1.53,1.53,0,0,0-.49.11,14.14,14.14,0,0,1-3,0Zm0-5.48a.3.3,0,0,1,.22-.07,1.21,1.21,0,0,0,.8-.51c.18-.21.23-.24.28-.16s.41.47.5.47a.33.33,0,0,1,.18.1.31.31,0,0,0,.24.1c.08,0,.17,0,.19.07a.22.22,0,0,0,.17.07c.08,0,.13,0,.13-.07s.09-.07.21-.07.2,0,.2-.05a1,1,0,0,1,.3-.27c.16-.12.3-.26.3-.31s0-.1,0-.1.28-.5.28-.73a.37.37,0,0,1,.07-.25s.07-.14.07-.26,0-.25-.07-.27-.07-.13-.07-.24a1.86,1.86,0,0,0-.43-.89.21.21,0,0,1-.1-.18c0-.07,0-.13-.07-.13s-.09-.05-.11-.12a3.3,3.3,0,0,0-.3-.42,1.26,1.26,0,0,1-.26-.42.2.2,0,0,0-.07-.15.28.28,0,0,1-.06-.19.35.35,0,0,0-.1-.24.38.38,0,0,1-.1-.26.63.63,0,0,0-.1-.31.53.53,0,0,1-.1-.27,1.52,1.52,0,0,0-.42-.8,1.21,1.21,0,0,0-.56-.1.73.73,0,0,0-.69.26,1,1,0,0,0-.28.36c0,.06,0,.11-.06.11s-.07.08-.07.16a.23.23,0,0,1-.1.2.28.28,0,0,0-.1.25,3,3,0,0,1-.48,1.11.34.34,0,0,0-.06.22c0,.11,0,.21-.1.23a.17.17,0,0,0-.1.14.29.29,0,0,1-.12.19,2.17,2.17,0,0,0-.61.84.22.22,0,0,1-.07.18,5.05,5.05,0,0,0,0,1.6.45.45,0,0,1,.11.25c.05.21.46.66.61.66a.17.17,0,0,1,.13.1.27.27,0,0,0,.24.1c.1,0,.19,0,.19.07s.06.07.13.07a.21.21,0,0,0,.17-.07Zm-4.89-4.49a.31.31,0,0,1,.19-.06,2.87,2.87,0,0,0,1.1-.58.47.47,0,0,1,.24-.16,3,3,0,0,0,.63-.52c.56-.54.71-.66.91-.73a.16.16,0,0,0,.11-.13c0-.05,0-.09.06-.09a6.44,6.44,0,0,0,1-1,.14.14,0,0,1,.09-.1,1.26,1.26,0,0,0,.27-.4c.18-.36.19-.43.19-1.19a2.45,2.45,0,0,0-.08-.88.81.81,0,0,1-.07-.39.67.67,0,0,0-.1-.42.72.72,0,0,1-.1-.47c0-.24,0-.39-.1-.44a.3.3,0,0,1-.1-.2c0-.26-.46-.94-.63-.94a.7.7,0,0,1-.22-.17.52.52,0,0,0-.25-.17.59.59,0,0,1-.28-.16,1,1,0,0,0-.42-.21,2.72,2.72,0,0,1-.45-.1,2.38,2.38,0,0,0-.51-.06.72.72,0,0,1-.37-.08,4.56,4.56,0,0,0-1-.11c-.74,0-.94,0-1.06.07a1.4,1.4,0,0,1-.36.13,1.69,1.69,0,0,0-.82.37.58.58,0,0,1-.2.15,1.24,1.24,0,0,0-.42.43.69.69,0,0,1-.15.2,1.51,1.51,0,0,0-.36.53c0,.06-.07.11-.1.11s-.46.82-.46,1.13a1,1,0,0,1-.1.44.75.75,0,0,0-.1.39c0,.13,0,.27-.07.29a2.11,2.11,0,0,0,0,1,1.92,1.92,0,0,1,.1.61,2,2,0,0,0,.11.65.29.29,0,0,1,.07.19,1.55,1.55,0,0,0,.17.42,1.55,1.55,0,0,1,.17.42.15.15,0,0,0,.1.13.18.18,0,0,1,.1.16.28.28,0,0,0,.1.2.32.32,0,0,1,.1.19,1.1,1.1,0,0,0,.46.55.07.07,0,0,1,.07.07,1.1,1.1,0,0,0,.55.46.32.32,0,0,1,.19.1.28.28,0,0,0,.18.1.37.37,0,0,1,.2.11.55.55,0,0,0,.32.1.46.46,0,0,1,.27.06,1.18,1.18,0,0,0,.8,0Zm13,0a.44.44,0,0,1,.26-.06.59.59,0,0,0,.33-.1.31.31,0,0,1,.2-.11.28.28,0,0,0,.18-.1.28.28,0,0,1,.14-.1,1.3,1.3,0,0,0,.59-.45.08.08,0,0,1,.07-.08c.1,0,.46-.42.47-.54a.65.65,0,0,1,.2-.29.65.65,0,0,0,.2-.32c0-.07,0-.12,0-.12a2.16,2.16,0,0,0,.29-.78.47.47,0,0,1,.1-.26,1.08,1.08,0,0,0,.1-.55,1.18,1.18,0,0,1,.06-.46,2.61,2.61,0,0,0,0-1.2.86.86,0,0,1-.06-.39,1.09,1.09,0,0,0-.1-.49.69.69,0,0,1-.1-.38c0-.14,0-.25-.06-.25s-.09-.12-.14-.27a1,1,0,0,0-.2-.39,1.17,1.17,0,0,1-.16-.21,2.36,2.36,0,0,0-.45-.61A1.66,1.66,0,0,1,71,43.6a.31.31,0,0,0-.16-.16.94.94,0,0,1-.22-.12,2.49,2.49,0,0,0-.87-.43.73.73,0,0,1-.31-.11c-.14-.1-.3-.11-1.25-.07a7.26,7.26,0,0,0-1.15.11.45.45,0,0,1-.28.07.94.94,0,0,0-.34.06,1.79,1.79,0,0,1-.36.1.92.92,0,0,0-.41.19,2.25,2.25,0,0,1-.41.28c-.13.07-.24.16-.24.19s-.06,0-.14,0-.2.1-.32.28a1.36,1.36,0,0,1-.23.31s0,.09,0,.18a.22.22,0,0,1-.1.19.18.18,0,0,0-.1.17,1,1,0,0,1-.1.32.91.91,0,0,0-.1.4.38.38,0,0,1-.07.26,5.52,5.52,0,0,0-.07,1.27c0,1,0,1.26.12,1.43s.14.21.17.21,0,.06,0,.14a.18.18,0,0,0,.1.17.17.17,0,0,1,.1.13c0,.05,0,.1,0,.1a7.93,7.93,0,0,1,.79.7,5.73,5.73,0,0,0,.84.73.63.63,0,0,1,.2.18,3,3,0,0,0,.9.79,2.37,2.37,0,0,1,.3.21,3,3,0,0,0,1,.47.33.33,0,0,1,.21.06.74.74,0,0,0,.4.07.72.72,0,0,0,.4-.07Z" transform="translate(-0.55 -0.33)"/><g id="g38458"><path id="path38398" class="cls-2" d="M31.38,72,28.59,76.1V89.18H32V82h4.53V79.16H32V75.7l4.91.66L38,72.85Z" transform="translate(-0.55 -0.33)"/><path id="path26905-0" class="cls-2" d="M42.72,72l-2.88,5.35v5H38.45v2h1.39v5.08H43V84.41h3v4.67l3.19.68,1.54-3.35-1.62-.26V76.89L47.9,72.75ZM43,75.68l3,.58v6.11H43Z" transform="translate(-0.55 -0.33)"/><path id="path27033" class="cls-2" d="M91.45,72l-.86,2.66h4V88.8h3.11V74.68H101l.86-2.66Z" transform="translate(-0.55 -0.33)"/><path id="path26167-4-5" class="cls-2" d="M78,73V89.23H74.87V75.7l-2-.4L74.42,72Z" transform="translate(-0.55 -0.33)"/><path id="path14467" class="cls-2" d="M51.35,88.73l.91-3.12,5.05.66a13.53,13.53,0,0,0,0-3.54l-5.65-2.45a16.53,16.53,0,0,1,0-2.1,11.2,11.2,0,0,1,.38-2.3,15.2,15.2,0,0,1,1.14-1.44A10.72,10.72,0,0,1,54.71,73a10.36,10.36,0,0,1,1.36-1l4.72.63-1.46,3L55.46,75a9.11,9.11,0,0,0-.25,3.17l5.43,2.24a10.26,10.26,0,0,1,.15,2.31,13.68,13.68,0,0,1-.33,2.72,14.33,14.33,0,0,1-3.66,3.89Z" transform="translate(-0.55 -0.33)"/><g id="text14488"><path id="path14490" class="cls-2" d="M67.39,72a13.39,13.39,0,0,0-2.65,2.37,14.93,14.93,0,0,0-2.15,2.85,21.12,21.12,0,0,0-.5,4.22,22.05,22.05,0,0,0,1,7.12l7,.68,1.11-3.53L65,85.32a35.7,35.7,0,0,1-.3-7c0-.85.76-1.46.93-1.81s1-.64,1.3-.79l3.58.56L72,72.62Z" transform="translate(-0.55 -0.33)"/></g><path id="path38448" class="cls-2" d="M80.2,88.73l.91-3.12,5,.66a12.72,12.72,0,0,0,0-3.54l-5.65-2.45a16.64,16.64,0,0,1,0-2.1,10.62,10.62,0,0,1,.37-2.3,15.2,15.2,0,0,1,1.14-1.44A10.72,10.72,0,0,1,83.56,73a11.07,11.07,0,0,1,1.36-1l4.72.63-1.46,3L84.32,75a9.11,9.11,0,0,0-.26,3.17l5.43,2.24a9.21,9.21,0,0,1,.15,2.31,13.68,13.68,0,0,1-.33,2.72,14.33,14.33,0,0,1-3.66,3.89Z" transform="translate(-0.55 -0.33)"/></g></g></g></g></g></svg>