<svg id="svg8" xmlns="http://www.w3.org/2000/svg" viewBox="0 0 127.56 183.67"><defs><style>.cls-1{fill:#61c8d9;}.cls-2,.cls-5{fill:#0091b3;}.cls-3{fill:none;stroke:#0091b3;stroke-miterlimit:11.34;stroke-width:1.7px;}.cls-4,.cls-5{isolation:isolate;}.cls-5{font-size:11.08px;font-family:FuturaBT-Heavy, Futura Hv BT;font-weight:800;letter-spacing:0.15em;}</style></defs><g id="layer1"><g id="g612"><g id="g5132"><g id="g8580"><g id="g9254"><g id="layer7"><rect id="rect35742" class="cls-1" width="127.56" height="183.67"/></g><g id="layer6"><rect id="rect35739" class="cls-2" x="9.84" y="9.52" width="107.89" height="164.9" rx="6.24"/><g id="g26327"><path id="rect26316" class="cls-1" d="M92.24,20.11V36.38h14.84V163.91H20.48V20.11Z" transform="translate(0 0)"/><path id="rect26321" class="cls-1" d="M94.22,21.44V34.1h12.66Z" transform="translate(0 0)"/></g></g><g id="layer5"><path id="path20364" class="cls-2" d="M63,64.56a.87.87,0,0,0-.25-.1.79.79,0,0,1-.26-.21.85.85,0,0,0-.27-.2.48.48,0,0,1-.22-.13l-.31-.26a.6.6,0,0,0-.21-.14,1.53,1.53,0,0,1-.34-.27,1.16,1.16,0,0,0-.35-.27,1.27,1.27,0,0,1-.37-.27,1.64,1.64,0,0,0-.35-.26.53.53,0,0,1-.22-.17c-.09-.09-.17-.17-.2-.17a1.08,1.08,0,0,1-.24-.2c-.19-.18-.2-.23-.2-.65a1.28,1.28,0,0,0-.07-.53,1.21,1.21,0,0,1-.11-.47,1.61,1.61,0,0,0-.09-.46,3.33,3.33,0,0,1-.09-.74,2.56,2.56,0,0,0-.11-.69,1.46,1.46,0,0,1-.07-.61c0-.44,0-.61-.1-.67s-.1-.22-.1-.57,0-.5-.12-.58a1.45,1.45,0,0,0-.92-.32.63.63,0,0,1-.43-.1.46.46,0,0,0-.31-.11c-.13,0-.23,0-.23-.06s-.12-.08-.27-.1-.28-.07-.3-.11a.35.35,0,0,0-.23-.06.44.44,0,0,1-.27-.1c-.05-.07-.2-.1-.44-.1s-.76-.15-.82-.29a.82.82,0,0,0-.34-.05c-.21,0-.36,0-.41-.1a.39.39,0,0,0-.26-.1.51.51,0,0,1-.3-.1.71.71,0,0,0-.32-.1c-.11,0-.19,0-.19-.06s-.09-.07-.19-.07a.67.67,0,0,1-.32-.1.55.55,0,0,0-.21-.1.57.57,0,0,1-.25-.17.54.54,0,0,0-.23-.17A8.75,8.75,0,0,1,49.58,52c0-.06,0-.1-.07-.1s-.06-.08-.06-.17a.24.24,0,0,0-.1-.21.18.18,0,0,1-.1-.17.4.4,0,0,0-.1-.23.42.42,0,0,1-.1-.26.29.29,0,0,0-.06-.2,2.16,2.16,0,0,1-.1-.65c0-.37-.06-.63-.11-.64a2.83,2.83,0,0,1-.07-1c0-.74,0-.94-.1-1a.3.3,0,0,1-.1-.22.53.53,0,0,0-.41-.38,2.19,2.19,0,0,0-.56.43,2.63,2.63,0,0,1-.55.44q-.09,0-.09-.3c0-.16,0-.31-.06-.33a3,3,0,0,1-.1-.76,5.21,5.21,0,0,0-.1-.83,1.72,1.72,0,0,1-.11-.52,1.09,1.09,0,0,0-.11-.45,2.6,2.6,0,0,1,.06-1.31,1.23,1.23,0,0,1,.17-.25s.05-.08.05-.17c0-.29.43-.74.95-1a.79.79,0,0,0,.32-.2,2.25,2.25,0,0,1,.67,0c.4,0,.67,0,.67.06s.09.09.19.11a.61.61,0,0,1,.21.09,1.51,1.51,0,0,0,.62.27.5.5,0,0,1,.27.12c.12.11.14.11.22,0A.24.24,0,0,1,51,42c.12,0,.1-1,0-1.14a.53.53,0,0,1-.1-.37.64.64,0,0,0-.06-.33s-.07-.15-.07-.29a.69.69,0,0,0-.1-.38,1,1,0,0,1-.1-.51.71.71,0,0,0-.1-.46.44.44,0,0,1-.1-.31c0-.12,0-.23-.06-.23s-.08-.12-.11-.26a.55.55,0,0,0-.11-.31.66.66,0,0,1-.06-.34c0-.2,0-.31-.1-.33a.29.29,0,0,1-.1-.26.41.41,0,0,0-.1-.3.35.35,0,0,1-.1-.2.55.55,0,0,0-.17-.3.9.9,0,0,1-.17-.26.56.56,0,0,0-.16-.24.51.51,0,0,1-.17-.24.26.26,0,0,0-.1-.17.35.35,0,0,1-.1-.2.26.26,0,0,0-.1-.2.3.3,0,0,1-.1-.2.4.4,0,0,0-.17-.24c-.09-.07-.17-.16-.17-.21a.14.14,0,0,0-.1-.11.21.21,0,0,1-.1-.18c0-.07,0-.13-.06-.13s-.07-.07-.09-.16a1.31,1.31,0,0,0-.21-.34.57.57,0,0,1-.17-.27.31.31,0,0,0-.1-.17.28.28,0,0,1-.1-.19.52.52,0,0,0-.17-.25.7.7,0,0,1-.17-.21,2.17,2.17,0,0,0-.4-.72.43.43,0,0,1-.13-.25.18.18,0,0,0-.1-.16.19.19,0,0,1-.11-.15,1.14,1.14,0,0,0-.26-.4,1.15,1.15,0,0,1-.27-.37.55.55,0,0,0-.1-.21.3.3,0,0,1,0-.46c.1-.1.14-.08.51.16a2.59,2.59,0,0,0,.45.26,1.21,1.21,0,0,1,.32.27,1.05,1.05,0,0,0,.33.27,1.56,1.56,0,0,1,.54.42.35.35,0,0,0,.19.11,1.27,1.27,0,0,1,.37.27,1,1,0,0,0,.38.27.51.51,0,0,1,.24.17.61.61,0,0,0,.23.17.85.85,0,0,1,.27.2,1,1,0,0,0,.25.2s.11.07.18.16a.38.38,0,0,0,.24.17.35.35,0,0,1,.2.1,5.19,5.19,0,0,0,.93.64.63.63,0,0,1,.22.18,2.38,2.38,0,0,0,.69.56,4.38,4.38,0,0,1,1,1c0,.08.08.15.11.15s.06.06.06.13a.35.35,0,0,0,.1.21.26.26,0,0,1,.1.19.65.65,0,0,0,.17.29.64.64,0,0,1,.17.35.38.38,0,0,0,.1.26.34.34,0,0,1,.1.2.33.33,0,0,0,.1.18.3.3,0,0,1,.1.2.22.22,0,0,0,.07.17s.07.12.07.23a.39.39,0,0,0,.1.27.4.4,0,0,1,.1.24c0,.09,0,.16.06.16s.08.11.11.24a.55.55,0,0,0,.1.27.35.35,0,0,1,.06.23.53.53,0,0,0,.1.29.32.32,0,0,1,.1.19.69.69,0,0,0,.1.22.55.55,0,0,1,.1.31.33.33,0,0,0,.07.23s.07.11.07.19a.5.5,0,0,0,.1.28.68.68,0,0,1,.1.24.26.26,0,0,0,.1.19.44.44,0,0,1,.1.27c0,.11,0,.21.07.23a.26.26,0,0,1,.06.17.43.43,0,0,0,.1.23.38.38,0,0,1,.1.26.4.4,0,0,0,.1.25.29.29,0,0,1,.1.22c0,.22.39.51.68.51a.58.58,0,0,0,.3-.06s.13-.07.24-.07.27-.07.47-.28a1.26,1.26,0,0,0,.26-.34.62.62,0,0,1,.16-.23.57.57,0,0,0,.17-.27.72.72,0,0,1,.17-.26.71.71,0,0,0,.17-.25.86.86,0,0,1,.2-.3,1.12,1.12,0,0,0,.2-.29.65.65,0,0,1,.17-.24.63.63,0,0,0,.16-.3c0-.07,0-.12.06-.12a2.26,2.26,0,0,0,.48-.73,1.48,1.48,0,0,1,.27-.35,1.14,1.14,0,0,0,.26-.4.3.3,0,0,1,.1-.19.29.29,0,0,0,.11-.16,1.53,1.53,0,0,1,.26-.38,1.27,1.27,0,0,0,.27-.37.61.61,0,0,1,.17-.23.56.56,0,0,0,.17-.27.3.3,0,0,1,.1-.2.28.28,0,0,0,.1-.17,1.12,1.12,0,0,1,.26-.37,1.28,1.28,0,0,0,.27-.36,2.51,2.51,0,0,1,.74-.71.51.51,0,0,0,.24-.16.46.46,0,0,1,.25-.17.33.33,0,0,0,.18-.1.28.28,0,0,1,.2-.1.22.22,0,0,0,.17-.07s.11-.07.19-.07a.58.58,0,0,0,.28-.09.47.47,0,0,1,.27-.1.21.21,0,0,0,.18-.11.22.22,0,0,1,.18-.1c.07,0,.14,0,.14-.06s.06-.07.13-.07a1.92,1.92,0,0,0,.8-.35s.1,0,.23,0a.52.52,0,0,0,.31-.1.28.28,0,0,1,.21-.1c.07,0,.12,0,.12-.07s.06-.07.13-.07a.3.3,0,0,0,.21-.1.32.32,0,0,1,.21-.1.34.34,0,0,0,.23-.1.5.5,0,0,1,.28-.1.51.51,0,0,0,.32-.17.51.51,0,0,1,.35-.16.42.42,0,0,0,.28-.1.33.33,0,0,1,.23-.1,3,3,0,0,0,1-.49.16.16,0,0,1,.13-.05,1.33,1.33,0,0,0,.62-.28s.09-.06.19-.06a.4.4,0,0,0,.28-.1.31.31,0,0,1,.17-.1.76.76,0,0,0,.27-.1,1,1,0,0,1,.35-.1c.08,0,.15,0,.15-.06s.05-.07.12-.07a.32.32,0,0,0,.21-.1.4.4,0,0,1,.28-.1.65.65,0,0,0,.37-.17.59.59,0,0,1,.33-.17.37.37,0,0,0,.25-.1.43.43,0,0,1,.23-.1.32.32,0,0,0,.22-.1.32.32,0,0,1,.21-.1c.06,0,.12,0,.12-.06s.12-.07.27-.1.27-.07.27-.11,0-.06.12-.06a.32.32,0,0,0,.21-.1.35.35,0,0,1,.24-.1c.09,0,.16,0,.16-.06s.12-.08.27-.1S77,29,77,29s.11-.07.24-.07.25,0,.27-.1a.23.23,0,0,1,.2-.1c.09,0,.16,0,.16-.06s.12-.08.27-.11a.66.66,0,0,0,.3-.1,1.41,1.41,0,0,1,.84,0s0,.07.1.07a.61.61,0,0,1,.43.42c0,.06,0,.12.07.12s.08.69,0,.93a4.45,4.45,0,0,1-.57.7,6.83,6.83,0,0,0-.66.79,2.61,2.61,0,0,1-.39.46c-.12.09-.21.2-.21.25s-.15.26-.79.93a1.53,1.53,0,0,0-.29.35,3.64,3.64,0,0,1-.47.55,3.16,3.16,0,0,0-.46.57.59.59,0,0,1-.17.26.71.71,0,0,0-.17.25,1.46,1.46,0,0,1-.23.31,4.66,4.66,0,0,0-.71.81,3.1,3.1,0,0,1-.43.51,2.77,2.77,0,0,0-.44.53,1.77,1.77,0,0,1-.37.48,1.57,1.57,0,0,0-.36.5.18.18,0,0,1-.1.15.17.17,0,0,0-.11.15,1.79,1.79,0,0,1-.43.53,3.3,3.3,0,0,0-.44.49.14.14,0,0,1-.09.1,1,1,0,0,0-.28.32,1.56,1.56,0,0,1-.27.35c-.05,0-.09.12-.09.21s0,.17-.07.17-.07.2-.07.46c0,.44,0,.48-.22.7a.75.75,0,0,1-.34.24.18.18,0,0,0-.15.1.21.21,0,0,1-.2.1c-.09,0-.16,0-.16.06s-.07.08-.16.1a1.87,1.87,0,0,0-.47.34l-.31.29v.67c0,.51,0,.69-.1.75a.31.31,0,0,0-.1.17c0,.09-.36.43-.58.55a1.46,1.46,0,0,1-.37.12.91.91,0,0,0-.37.21.43.43,0,0,1-.24.16.44.44,0,0,0-.24.17c-.13.13-.17.25-.19.69s0,.56-.22.74a.62.62,0,0,1-.33.21c-.07,0-.13,0-.13.06s-.07.07-.16.07a.59.59,0,0,0-.28.1.61.61,0,0,1-.26.1c-.16,0-.58.44-.58.6a.17.17,0,0,1-.1.16c-.06,0-.1.13-.1.27a.63.63,0,0,1-.5.58.47.47,0,0,0-.27.1.54.54,0,0,1-.24.1.3.3,0,0,0-.19.1.28.28,0,0,1-.18.1A1.29,1.29,0,0,0,63,50a1.18,1.18,0,0,1-.36.17.24.24,0,0,0-.17.1.4.4,0,0,1-.25.1c-.08,0-.16,0-.16.06s0,.07-.1.07a1.58,1.58,0,0,0-.63.65,1.52,1.52,0,0,0,.37.46,2.32,2.32,0,0,1,.36.44.06.06,0,0,0,.06.06,2.71,2.71,0,0,1,.68.67s0,.06.07.06.06,0,.06.08a.92.92,0,0,0,.45.46.46.46,0,0,1,.21.17.42.42,0,0,0,.21.16s.07,0,.07.11,0,.1.05.1a4.15,4.15,0,0,1,.82.8s0,.07.1.07.1.06.11.14a.4.4,0,0,0,.16.22,3.15,3.15,0,0,1,.3.22.69.69,0,0,0,.22.15s0,.05,0,.1,0,.1.06.1,1.15,1.09,2.48,2.41,2.47,2.41,2.51,2.41.31.24.31.34a1,1,0,0,0,.2.27,1.08,1.08,0,0,1,.2.24.49.49,0,0,0,.17.17c.13.11.16.19.16.43s0,.3-.06.3-.08.12-.1.26a.77.77,0,0,1-.11.31.44.44,0,0,0-.06.26c0,.14,0,.24-.1.26s-.1.13-.1.28,0,.23-.06.23-.08.08-.1.17-.08.17-.4.17-.39,0-.45.1-.21.1-.47.1a.83.83,0,0,0-.43.07,2.39,2.39,0,0,1-.7.06H68l-.27-.27a1.08,1.08,0,0,1-.28-.36.24.24,0,0,0-.1-.17.28.28,0,0,1-.1-.19.61.61,0,0,0-.16-.29.85.85,0,0,1-.2-.31c0-.08-.09-.15-.13-.15l-.22,0c-.33-.09-.64.56-.4.8a.61.61,0,0,1,.11.38c0,.19,0,.27-.11.27a.1.1,0,0,0-.1.1.11.11,0,0,1-.11.1.53.53,0,0,0-.25.1,8.68,8.68,0,0,1-2.74,0Z" transform="translate(0 0)"/><g id="g38993"><path id="path22377" class="cls-2" d="M43.71,73.42,41.86,76.6l2.3.35v9.9l-1.59-.18-1,3.23,7.93,1c.59-.4.72-1,1.58-1.87a11.87,11.87,0,0,0,1.77-2,8.5,8.5,0,0,0,.2-3.14l-2.43-2.14,2-1.69a25.88,25.88,0,0,0-.48-3.53,10.93,10.93,0,0,0-1-2.33H47.27Zm3.56,4h1.46a5.71,5.71,0,0,1,.53,1.24,10,10,0,0,1,.38,1.69L48,81.66v1.13l1.74,1.48a10.49,10.49,0,0,1,0,1.72,13.62,13.62,0,0,1-.2,1.64l-2.35-.28Z" transform="translate(0 0)"/><path id="path26905" class="cls-2" d="M83.22,73.16l-2.88,5.36v5H79v2h1.39v5.07h3.11V85.56h3v4.67l3.18.68,1.54-3.36-1.61-.25V78L88.39,73.9Zm.23,3.67,3,.57v6.11h-3Z" transform="translate(0 0)"/><path id="path26931" class="cls-2" d="M93.28,74.16l-1.59,2.69,2,.4V88.42l1.94,2.16,4.86.33,1-2.82-4.65-.27V75.14Z" transform="translate(0 0)"/><path id="path25585" class="cls-2" d="M66.32,73.89,64.88,76.6l2.32.12V90.61h3.18V77l1.47.15a11.46,11.46,0,0,1,.65,4l-2.78,2v.39L72,85.38l1.67,4.77,3.56.76,1-2.61L76.45,88l-1.71-3.63-1.38-1.65L76,81.2a27.11,27.11,0,0,0-.25-4.2,8.52,8.52,0,0,0-.86-2.46Z" transform="translate(0 0)"/><path id="path26167-4" class="cls-2" d="M39.66,74.68V90.91H36.48V77.38l-2-.4L36,73.69Z" transform="translate(0 0)"/><path id="path26169-6" class="cls-2" d="M58,73.59l-2.74,4.33V87.8l2,2.76,6.28.35,1.06-2.49-5.91-.33V83.54h4.09V80.88H58.65V76.34l4.9.6,1.16-2.51Z" transform="translate(0 0)"/><path id="path38984" class="cls-2" d="M25.58,74.16,24,76.85l2,.4V88.42L28,90.58l4.86.33,1-2.82-4.66-.27V75.14Z" transform="translate(0 0)"/></g><g id="g9435"><circle id="path9358" class="cls-2" cx="27" cy="97.45" r="0.98"/><g id="use9362"><circle id="path9358-2" data-name="path9358" class="cls-2" cx="30.06" cy="97.45" r="0.98"/></g><g id="use9364"><circle id="path9358-3" data-name="path9358" class="cls-2" cx="33.13" cy="97.45" r="0.98"/></g><g id="use9366"><circle id="path9358-4" data-name="path9358" class="cls-2" cx="36.19" cy="97.45" r="0.98"/></g><g id="use9368"><circle id="path9358-5" data-name="path9358" class="cls-2" cx="39.26" cy="97.45" r="0.98"/></g><g id="use9370"><circle id="path9358-6" data-name="path9358" class="cls-2" cx="42.32" cy="97.45" r="0.98"/></g><g id="use9372"><circle id="path9358-7" data-name="path9358" class="cls-2" cx="45.39" cy="97.45" r="0.98"/></g><g id="use9374"><circle id="path9358-8" data-name="path9358" class="cls-2" cx="48.45" cy="97.45" r="0.98"/></g><g id="use9376"><circle id="path9358-9" data-name="path9358" class="cls-2" cx="51.52" cy="97.45" r="0.98"/></g><g id="use9378"><circle id="path9358-10" data-name="path9358" class="cls-2" cx="54.58" cy="97.45" r="0.98"/></g><g id="use9380"><circle id="path9358-11" data-name="path9358" class="cls-2" cx="57.65" cy="97.45" r="0.98"/></g><g id="use9382"><circle id="path9358-12" data-name="path9358" class="cls-2" cx="60.71" cy="97.45" r="0.98"/></g><g id="use9384"><circle id="path9358-13" data-name="path9358" class="cls-2" cx="63.78" cy="97.45" r="0.98"/></g><g id="use9386"><circle id="path9358-14" data-name="path9358" class="cls-2" cx="66.84" cy="97.45" r="0.98"/></g><g id="use9388"><circle id="path9358-15" data-name="path9358" class="cls-2" cx="69.91" cy="97.45" r="0.98"/></g><g id="use9390"><circle id="path9358-16" data-name="path9358" class="cls-2" cx="72.97" cy="97.45" r="0.98"/></g><g id="use9392"><circle id="path9358-17" data-name="path9358" class="cls-2" cx="76.04" cy="97.45" r="0.98"/></g><g id="use9394"><circle id="path9358-18" data-name="path9358" class="cls-2" cx="79.1" cy="97.45" r="0.98"/></g><g id="use9396"><circle id="path9358-19" data-name="path9358" class="cls-2" cx="82.17" cy="97.45" r="0.98"/></g><g id="use9398"><circle id="path9358-20" data-name="path9358" class="cls-2" cx="85.23" cy="97.45" r="0.98"/></g><g id="use9400"><circle id="path9358-21" data-name="path9358" class="cls-2" cx="88.3" cy="97.45" r="0.98"/></g><g id="use9402"><circle id="path9358-22" data-name="path9358" class="cls-2" cx="91.36" cy="97.45" r="0.98"/></g><g id="use9404"><circle id="path9358-23" data-name="path9358" class="cls-2" cx="94.43" cy="97.45" r="0.98"/></g><g id="use9406"><circle id="path9358-24" data-name="path9358" class="cls-2" cx="97.49" cy="97.45" r="0.98"/></g><g id="use9408"><circle id="path9358-25" data-name="path9358" class="cls-2" cx="100.56" cy="97.45" r="0.98"/></g></g><g id="g35737"><path id="path35667" class="cls-3" d="M84,104.75h16.68" transform="translate(0 0)"/><path id="path35669" class="cls-3" d="M84,111.15h16.68" transform="translate(0 0)"/><path id="path35671" class="cls-3" d="M26.88,117.55h73.8" transform="translate(0 0)"/><path id="path35673" class="cls-3" d="M26.88,124h73.8" transform="translate(0 0)"/><path id="path35675" class="cls-3" d="M26.88,130.36H91" transform="translate(0 0)"/><path id="path35677" class="cls-3" d="M26.88,143.12h73.8" transform="translate(0 0)"/><path id="path35679" class="cls-3" d="M26.88,149.53h73.8" transform="translate(0 0)"/><path id="path35681" class="cls-3" d="M26.88,155.93h73.8" transform="translate(0 0)"/><g id="text35685" class="cls-4"><text class="cls-5" transform="translate(26.99 112.11)">ARTICLE</text></g></g></g></g></g></g></g></g></svg>